HIERARCHY
ROOT Hips
{
  OFFSET 23.0736 105.496 174.749
  CHANNELS 6 Xposition Yposition Zposition Zrotation Xrotation Yrotation
  JOINT RightUpLeg
  {
    OFFSET -8.9458 -8.66707 0.101652
    CHANNELS 3 Zrotation Xrotation Yrotation
    JOINT RightLeg
    {
      OFFSET 0 -44.4227 1.3727
      CHANNELS 3 Zrotation Xrotation Yrotation
      JOINT RightFoot
      {
        OFFSET 0.253549 -42.0924 -1.46059
        CHANNELS 3 Zrotation Xrotation Yrotation
        JOINT RightToes
        {
          OFFSET 0.04 -4.41509 8.4991
          CHANNELS 3 Zrotation Xrotation Yrotation
          End Site
          {
            OFFSET -0.08 -0.137448 9.77979
          }
        }
      }
    }
  }
  JOINT Spine
  {
    OFFSET 0 11.8905 0
    CHANNELS 3 Zrotation Xrotation Yrotation
    JOINT Spine1
    {
      OFFSET 0 25.6574 0.127663
      CHANNELS 3 Zrotation Xrotation Yrotation
      JOINT HEad
      {
        OFFSET 0 8.73416 0.011341
        CHANNELS 3 Zrotation Xrotation Yrotation
        End Site
        {
          OFFSET -0.29 12.7742 2.51395
        }
      }
      JOINT LeftShoulder1
      {
        OFFSET 8.99 -0.362252 -0.22
        CHANNELS 3 Zrotation Xrotation Yrotation
        JOINT LeftArm
        {
          OFFSET 10.2827 -0.00338 0.322123
          CHANNELS 3 Zrotation Xrotation Yrotation
          JOINT LeftForeArm
          {
            OFFSET 32.7669 0.099144 -1.42434
            CHANNELS 3 Zrotation Xrotation Yrotation
            JOINT LeftHand
            {
              OFFSET 27.5643 0.085362 1.02216
              CHANNELS 3 Zrotation Xrotation Yrotation
              End Site
              {
                OFFSET 16.7443 -0.6 1.50291
              }
            }
          }
        }
      }
      JOINT RightShoulder
      {
        OFFSET -8.99 -0.362252 -0.22
        CHANNELS 3 Zrotation Xrotation Yrotation
        JOINT RightArm
        {
          OFFSET -10.2827 -0.00338 0.322123
          CHANNELS 3 Zrotation Xrotation Yrotation
          JOINT RightForeArm
          {
            OFFSET -32.8971 0.099144 -1.42434
            CHANNELS 3 Zrotation Xrotation Yrotation
            JOINT RightHand
            {
              OFFSET -27.4921 0.085362 1.02216
              CHANNELS 3 Zrotation Xrotation Yrotation
              End Site
              {
                OFFSET -16.6312 -0.6 1.50291
              }
            }
          }
        }
      }
    }
  }
  JOINT LeftUpLeg
  {
    OFFSET 8.9458 -8.66707 0.101652
    CHANNELS 3 Zrotation Xrotation Yrotation
    JOINT LeftLeg
    {
      OFFSET 0 -44.4227 1.3727
      CHANNELS 3 Zrotation Xrotation Yrotation
      JOINT LeftFoot
      {
        OFFSET -0.253549 -42.0924 -1.46059
        CHANNELS 3 Zrotation Xrotation Yrotation
        JOINT LeftToes
        {
          OFFSET -0.04 -4.41509 8.4991
          CHANNELS 3 Zrotation Xrotation Yrotation
          End Site
          {
            OFFSET 0.08 -0.047448 9.77979
          }
        }
      }
    }
  }
}
MOTION
Frames:	12
Frame Time:	0.0166667
22.8635 104.951 25.5177 -6.20247 2.46236 -177.377 -4.72628 0.618598 0.532074 6.61486 46.3293 -22.243 2.50777 -10.0711 -0.0695622 2.88917 3.42634 5.84594 1.38471 3.33682 -3.13266 -17.3172 3.19832 0.912608 14.6914 0.7258 -8.1008 -2.37299e-015 -1.59028e-015 -1.98785e-016 -77.8456 -45.5983 -3.32141 -17.0634 13.8439 -10.8288 0.368473 9.90896 -0.00117926 3.56627 0.306572 -0.859334 90.9965 -24.8948 14.9491 20.1543 15.9472 22.4088 -0.369625 9.91382 0.00119887 -9.26824 -15.0733 -0.174011 0.529998 20.3124 16.5753 -14.0845 -1.0331 0.34877 -0.878957 0.0265391 -2.83445 
22.6076 104.938 24.2197 -6.61277 2.55954 -177.31 -5.37107 -1.53535 -0.906375 5.46676 50.6581 -20.9094 2.22776 -7.48519 -0.117257 3.38382 6.06978 6.69626 0.877863 3.41464 -3.11996 -17.6314 3.71561 1.02356 14.5472 0.0142826 -8.11316 1.22998e-015 7.95139e-016 1.98785e-016 -78.5639 -44.1817 -5.05036 -17.3997 14.0389 -11.9964 0.368473 9.90896 -0.00117926 3.47193 0.2687 -1.16883 90.9333 -24.7158 14.0749 20.5012 15.9725 22.4212 -0.369625 9.91382 0.00119887 -9.90659 -14.2952 -1.16 0.225325 20.6725 17.2465 -14.0775 -1.75554 0.264268 -0.921891 -0.675821 -2.71138 
22.3539 104.881 22.9838 -6.96831 2.57698 -177.332 -5.98476 -3.9106 -2.05594 4.18105 54.883 -19.6422 1.7914 -5.44972 -0.158884 3.39085 7.66025 6.52135 0.409941 3.47081 -3.08428 -17.8148 4.20533 1.12301 14.3074 -0.740629 -7.99657 8.44835e-016 1.59028e-015 -1.98785e-016 -79.2567 -42.6425 -6.87618 -17.7826 14.2259 -13.0412 0.368473 9.90896 -0.00117926 3.35147 0.242075 -1.38072 90.9172 -24.6159 13.3654 20.7726 15.9705 22.2955 -0.369625 9.91382 0.00119887 -10.4506 -13.7391 -1.98478 -0.0775203 21.2083 17.8297 -14.0849 -2.5611 0.1708 -0.872231 -1.57625 -2.26218 
22.0895 104.83 21.7724 -7.19409 2.46602 -177.552 -6.44615 -6.39429 -1.95787 4.4957 58.5349 -20.7487 1.324 -4.49733 -0.17479 2.71505 7.51851 5.07945 0.270548 3.46997 -3.08325 -17.8931 4.43713 1.1698 13.9494 -1.30462 -7.75697 -3.10601e-016 7.95139e-016 -9.93923e-017 -79.6977 -41.0845 -8.63585 -18.3261 14.4043 -13.8872 0.368473 9.90896 -0.00117926 2.96686 0.242205 -1.30992 91.3332 -24.7743 12.9815 20.7789 15.8744 21.7281 -0.369625 9.91382 0.00119887 -10.7735 -13.4092 -1.60917 -0.147978 21.8409 17.5509 -13.9465 -3.38265 0.0704217 -0.982064 -2.55413 -2.28431 
21.8375 104.793 20.5962 -7.33307 2.28462 -177.819 -6.74786 -8.90842 -1.40239 5.74204 61.4795 -22.7613 0.85769 -4.13344 -0.18011 1.85195 6.66201 3.3709 0.281222 3.44344 -3.09166 -17.8993 4.58218 1.19715 13.5409 -1.8117 -7.46415 -6.4605e-016 0 -2.98177e-016 -80.0598 -39.523 -10.4817 -18.8441 14.5612 -14.5726 0.368473 9.90896 -0.00117926 2.63867 0.250255 -1.18076 91.7898 -25.0691 12.7687 20.669 15.7321 20.9412 -0.369625 9.91382 0.00119887 -10.9669 -13.1457 -0.971057 -0.200287 22.4083 17.1052 -13.7551 -4.20869 -0.0305919 -1.09858 -3.43531 -2.34809 
21.6253 104.806 19.4549 -7.38513 2.04592 -177.977 -6.9766 -11.3577 -0.910511 7.04976 63.432 -24.3214 0.373027 -3.91881 -0.185907 1.36628 5.94567 2.45102 0.404002 3.40472 -3.11439 -17.8954 4.71097 1.22263 13.1424 -2.34423 -7.20712 1.09332e-015 0 1.98785e-016 -80.4123 -37.9753 -12.5392 -19.1749 14.6795 -15.0968 0.368473 9.90896 -0.00117926 2.72435 0.250968 -1.19061 91.9167 -25.4301 12.6032 20.5614 15.574 20.0698 -0.369625 9.91382 0.00119887 -11.0206 -12.7916 -0.719753 -0.452828 22.6647 16.9707 -13.5207 -5.01361 -0.125351 -1.12659 -3.90397 -2.28539 
21.4267 104.836 18.344 -7.39954 1.83617 -178.146 -7.08769 -13.6679 -0.340334 8.14949 64.6252 -25.1565 0.157703 -4.21993 -0.184247 1.05005 5.23476 1.90093 0.50685 3.37197 -3.11884 -17.8244 4.89519 1.25241 12.7434 -2.82136 -6.9358 9.93923e-017 0 -0 -80.8219 -36.5138 -14.709 -19.3604 14.7697 -15.5011 0.368473 9.90896 -0.00117926 2.87494 0.24912 -1.23521 92.0535 -25.8705 12.5616 20.3621 15.3899 19.0707 -0.369625 9.91382 0.00119887 -11.0406 -12.3475 -0.664929 -0.752359 22.7638 17.0487 -13.3286 -5.77257 -0.2135 -1.10292 -4.26615 -2.10543 
21.2167 104.857 17.2639 -7.44212 1.7718 -178.417 -7.06984 -15.7253 0.28508 8.24538 65.2526 -24.0105 0.739748 -5.36817 -0.166555 1.0157 4.77533 1.91014 0.410692 3.37722 -3.06551 -17.645 5.26782 1.30537 12.3659 -3.18387 -6.61453 -5.28022e-016 0 3.97569e-016 -81.4648 -35.2392 -16.9975 -19.3714 14.8307 -15.8073 0.368473 9.90896 -0.00117926 2.79674 0.246167 -1.24787 92.5068 -26.3871 12.7266 19.9834 15.1684 17.8843 -0.369625 9.91382 0.00119887 -11.1509 -11.7282 -0.887707 -1.02802 22.7532 17.5104 -13.2978 -6.43194 -0.289727 -1.04087 -4.77598 -1.77565 
21.0186 104.877 16.2004 -7.4611 1.77525 -178.723 -6.95932 -17.5513 0.931862 8.09366 65.1405 -22.5748 1.38134 -7.02971 -0.145883 0.88693 4.2712 1.70666 0.218833 3.39227 -2.98001 -17.374 5.71537 1.36128 11.9718 -3.44885 -6.28843 -6.70898e-016 -3.18055e-015 -2.48481e-017 -82.1857 -34.0856 -19.2665 -19.2556 14.8759 -16.0743 0.368473 9.90896 -0.00117926 2.68137 0.236811 -1.31317 93.0172 -26.9543 12.9617 19.5242 14.9426 16.6949 -0.369625 9.91382 0.00119887 -11.2743 -11.0327 -1.22078 -1.23439 22.704 18.0208 -13.3353 -7.05247 -0.361765 -0.906975 -5.27303 -1.25389 
20.8485 104.9 15.1428 -7.41328 1.82458 -179.028 -6.78329 -19.0869 1.56901 8.48297 64.1465 -22.4911 1.36414 -9.11393 -0.132604 0.0986428 3.38017 0.234632 -0.0269265 3.39689 -2.86868 -16.9839 6.19918 1.40847 11.4891 -3.58979 -6.00298 1.51729e-015 0 3.91357e-016 -82.9295 -33.0623 -21.3995 -19.0275 14.9157 -16.3709 0.368473 9.90896 -0.00117926 2.61479 0.216025 -1.49707 93.4378 -27.571 13.169 19.0363 14.7525 15.6794 -0.369625 9.91382 0.00119887 -11.3923 -10.3092 -1.55533 -1.26744 22.6963 18.2202 -13.375 -7.68312 -0.436035 -0.582653 -5.6578 -0.229355 
20.7028 104.909 14.0812 -7.34008 1.86938 -179.324 -6.5921 -20.4626 2.15071 9.01003 62.4649 -23.1827 1.15356 -11.2227 -0.12639 -0.838627 2.47461 -1.45133 -0.320993 3.39908 -2.74983 -16.5642 6.6278 1.43976 11.0385 -3.67804 -5.72201 -2.39163e-015 1.59028e-015 3.72721e-016 -83.5975 -32.0844 -23.3588 -18.7545 14.9545 -16.6903 0.368473 9.90896 -0.00117926 2.61981 0.184463 -1.78866 93.7187 -28.1649 13.3057 18.601 14.5901 14.7938 -0.369625 9.91382 0.00119887 -11.4805 -9.62689 -1.80288 -1.23692 22.7606 18.357 -13.4564 -8.30561 -0.511398 -0.341129 -5.9991 0.524802 
20.587 104.886 12.9997 -7.28249 1.83645 -179.593 -6.46701 -21.8161 2.66501 9.51832 60.1956 -24.8488 0.951351 -12.9713 -0.136383 -1.47656 1.97385 -2.60588 -0.66022 3.4003 -2.64547 -16.2175 6.86034 1.43913 10.7561 -3.77457 -5.40464 2.17421e-016 1.59028e-015 1.98785e-016 -84.0187 -31.0735 -25.0143 -18.5034 15.0016 -17.0664 0.368473 9.90896 -0.00117926 2.76263 0.138383 -2.23066 93.7301 -28.6324 13.2749 18.3479 14.4585 14.0248 -0.369625 9.91382 0.00119887 -11.518 -9.10233 -1.80948 -1.22555 22.9752 18.6378 -13.6422 -8.90554 -0.58967 -0.544588 -6.25124 0.0135494 
